<?xml version="1.0" standalone="no"?>
<!DOCTYPE svg PUBLIC "-//W3C//DTD SVG 20010904//EN"
 "http://www.w3.org/TR/2001/REC-SVG-20010904/DTD/svg10.dtd">
<svg version="1.0" xmlns="http://www.w3.org/2000/svg"
 width="250.000000pt" height="250.000000pt" viewBox="0 0 250.000000 250.000000"
 preserveAspectRatio="xMidYMid meet">
<metadata>
Created by potrace 1.14, written by Peter Selinger 2001-2017
</metadata>
<g transform="translate(0.000000,250.000000) scale(0.100000,-0.100000)"
fill="#000000" stroke="none">
<path d="M1828 2495 c-2 -2 -18 -6 -36 -10 -156 -27 -303 -194 -319 -361 -3
-35 -7 -64 -9 -64 -1 0 -26 12 -55 26 -29 15 -71 29 -93 31 l-41 5 0 -211 0
-211 50 -1 c27 0 66 -2 85 -4 19 -2 59 -7 87 -10 108 -11 150 -24 162 -52 13
-28 19 -27 -79 -8 -27 5 -78 13 -130 19 -33 4 -143 9 -165 7 -7 -1 -10 -100
-10 -281 0 -273 0 -280 20 -280 52 -1 512 -1 529 -1 17 1 18 8 12 104 -6 98
-10 137 -21 185 -7 30 -2 28 30 -13 28 -38 31 -48 40 -183 4 -48 8 -88 10 -90
6 -6 403 -4 413 2 13 8 -9 82 -44 146 -33 60 -117 147 -189 195 -58 38 -63 46
-41 64 18 16 114 -49 190 -128 31 -34 59 -61 61 -61 11 0 -60 183 -101 259
l-46 89 40 68 c123 213 156 333 123 454 -37 137 -138 247 -271 296 -41 14
-192 29 -202 19z m143 -210 c151 -53 193 -253 77 -365 -61 -58 -88 -65 -129
-30 -48 38 -168 114 -207 130 -42 16 -51 40 -40 99 25 135 166 213 299 166z"/>
<path d="M1170 2115 c-142 -38 -276 -171 -367 -365 -37 -77 -47 -110 -36 -110
4 0 35 7 68 14 78 19 117 25 190 32 33 4 67 8 75 9 8 2 41 4 73 4 l57 1 0 209
c0 116 -3 212 -7 214 -5 2 -28 -1 -53 -8z"/>
<path d="M960 2085 c-282 -80 -527 -285 -657 -548 -33 -66 -83 -199 -83 -219
0 -4 28 20 63 56 34 35 91 82 127 105 71 46 210 114 253 125 20 5 33 17 44 44
76 187 139 288 236 385 37 37 67 67 65 66 -2 0 -23 -7 -48 -14z"/>
<path d="M1167 1655 c-1 -1 -36 -5 -77 -9 -41 -3 -86 -8 -100 -10 -14 -3 -43
-7 -65 -11 -22 -3 -74 -15 -116 -26 l-76 -20 -13 -52 c-16 -69 -30 -136 -35
-170 -12 -85 -15 -109 -20 -184 l-6 -83 83 -1 c75 -1 317 0 441 1 l47 0 0 280
c0 154 -3 280 -7 281 -5 0 -18 2 -31 3 -12 2 -23 2 -25 1z"/>
<path d="M640 1545 c-61 -21 -163 -76 -226 -121 -114 -81 -204 -203 -220 -298
l-5 -36 78 -1 c88 -1 247 -1 309 0 l40 1 0 48 c1 91 30 300 54 381 5 19 9 36
7 37 -1 1 -18 -4 -37 -11z"/>
<path d="M194 1003 c15 -84 85 -191 177 -268 62 -53 217 -138 287 -160 20 -6
23 -4 18 12 -10 34 -36 152 -40 185 -9 66 -20 194 -20 231 l-1 37 -213 0 -214
0 6 -37z"/>
<path d="M665 963 c7 -125 18 -203 47 -326 l21 -87 51 -15 c122 -35 262 -56
401 -59 l40 -1 3 283 2 282 -284 0 -285 0 4 -77z"/>
<path d="M1275 763 c0 -163 3 -281 9 -285 12 -8 199 4 246 17 8 2 33 6 55 10
64 9 87 14 135 29 56 16 59 23 96 221 8 44 17 126 21 183 l6 102 -284 0 -284
0 0 -277z"/>
<path d="M1889 1008 c-2 -66 -6 -114 -13 -173 -9 -65 -9 -67 -32 -178 -8 -43
-13 -81 -10 -84 10 -10 210 94 273 142 106 79 184 190 199 283 l7 42 -212 0
-211 0 -1 -32z"/>
<path d="M227 791 c13 -57 64 -187 94 -240 126 -222 335 -402 567 -485 123
-44 126 -42 51 33 -93 93 -160 203 -231 379 -11 28 -25 37 -94 65 -131 53
-231 116 -316 198 -62 60 -76 70 -71 50z"/>
<path d="M2233 767 c-89 -96 -207 -172 -360 -232 -58 -22 -73 -32 -78 -54 -10
-41 -90 -205 -126 -258 -41 -61 -93 -119 -142 -160 -21 -18 -34 -33 -29 -33
26 0 190 62 250 95 260 143 435 356 522 638 10 31 17 57 16 57 -2 0 -25 -24
-53 -53z"/>
<path d="M760 479 c0 -5 19 -49 41 -97 100 -212 241 -347 396 -377 l32 -6 1
214 1 214 -68 2 c-101 3 -322 33 -344 46 -15 10 -59 13 -59 4z"/>
<path d="M1719 486 c-3 -4 -98 -24 -194 -41 -16 -3 -75 -8 -130 -11 -55 -3
-105 -7 -110 -8 -7 -2 -10 -80 -10 -212 0 -233 -5 -220 74 -197 134 39 270
179 356 368 43 95 46 105 31 105 -7 0 -15 -2 -17 -4z"/>
</g>
</svg>
